<?xml version="1.0" standalone="no"?><!DOCTYPE svg PUBLIC "-//W3C//DTD SVG 1.1//EN" "http://www.w3.org/Graphics/SVG/1.1/DTD/svg11.dtd"><svg t="1766228943279" class="icon" viewBox="0 0 1024 1024" version="1.1" xmlns="http://www.w3.org/2000/svg" p-id="14857" xmlns:xlink="http://www.w3.org/1999/xlink" width="200" height="200"><path d="M689.493333 348.373333H334.506667c-47.146667 0-85.333333-38.186667-85.333334-85.333333V211.413333c0-47.146667 38.186667-85.333333 85.333334-85.333333h354.773333c47.146667 0 85.333333 38.186667 85.333333 85.333333v51.626667c0.213333 47.146667-38.186667 85.333333-85.12 85.333333z" fill="#FCCA1E" p-id="14858"></path><path d="M810.666667 678.826667H213.333333c-47.146667 0-85.333333-38.186667-85.333333-85.333334v-251.733333c0-47.146667 38.186667-85.333333 85.333333-85.333333h597.333334c47.146667 0 85.333333 38.186667 85.333333 85.333333v251.733333c0 46.933333-38.186667 85.333333-85.333333 85.333334z" fill="#2953FF" p-id="14859"></path><path d="M689.493333 897.92H334.506667c-47.146667 0-85.333333-38.186667-85.333334-85.333333V574.72h525.44V812.8c0.213333 46.933333-38.186667 85.12-85.12 85.12z" fill="#FCCA1E" p-id="14860"></path><path d="M281.6 423.68m-51.2 0a51.2 51.2 0 1 0 102.4 0 51.2 51.2 0 1 0-102.4 0Z" fill="#FF354A" p-id="14861"></path></svg>